<svg width="1045" height="316" viewBox="0 0 1045 316" fill="none" xmlns="http://www.w3.org/2000/svg">
<path d="M136.713 315.699C128.648 314.407 110.573 303.685 102.465 298.56C70.949 278.428 37.7438 258.062 12.0398 230.552C-2.1436 215.373 0.120086 197.665 0.148864 178.671L0.217442 133.662L0.148864 94.4327C0.114575 87.2344 -0.0960531 80.0117 0.208875 72.8085C0.56095 64.4763 2.99854 61.397 10.3119 57.8585C18.6913 53.8038 27.1148 50.0032 35.5248 46.0967L84.7137 23.2137L115.6 8.8178C121.382 6.12672 130.727 1.40401 136.547 0C136.786 8.75045 136.364 19.0323 136.797 27.3174C102.649 41.6986 69.0809 59.2944 35.0655 74.1415C32.3279 75.3361 26.928 77.5998 25.6691 80.1084C23.9155 83.6053 24.6845 99.5234 24.7347 102.481C35.3797 107.472 46.0154 112.513 56.5648 117.678C63.2083 120.931 68.8421 123.855 76.2479 120.721C94.0721 113.181 109.146 97.684 128.882 111.239C118.337 119.367 106.004 127.715 96.2654 136.521C90.0579 142.135 91.5219 148.931 96.5158 154.216C118.101 180.588 134.49 154.92 155.929 150.823C159.742 150.101 196.885 188.927 202.282 193.862C206.541 197.751 208.683 203.91 203.329 208.607C193.464 217.259 180.135 193.789 174.333 193.758C171.699 201.241 202.783 212.917 183.938 223.473C175.31 228.305 164.75 208.613 157.995 206.586L156.824 207.688C157.013 213.885 179.148 223.951 170.071 233.252C159.987 243.582 149.426 224.533 141.665 219.077L140.539 219.114C139.291 220.718 139.497 219.867 139.636 221.679C144.169 226.639 154.645 235.003 154.299 240.618C154.164 242.669 153.22 244.586 151.673 245.945C145.04 251.768 138.029 245.731 133.427 240.967C136.37 229.903 131.121 222.482 120.246 219.757C116.94 209.813 114.751 208.356 104.998 204.841C104.473 201.026 102.09 195.736 99.2161 194.279C90.8814 190.048 90.3689 193.458 87.0802 184.157C85.2323 178.928 75.0043 173.528 69.5034 175.573C61.9776 177.061 57.7618 182.584 53.311 187.996C43.9599 184.347 33.9548 179.406 24.7849 175.108C24.5896 192.203 21.8936 207.082 35.1935 219.206C59.8265 241.665 107.556 274.913 136.704 288.849C136.621 297.795 136.624 306.747 136.713 315.699Z" fill="#1B3476"/>
<path d="M136.546 0C142.21 0.686394 251.549 52.4562 263.497 58.9656C265.252 59.9134 266.776 61.2342 267.964 62.8353C271.991 68.2291 270.748 86.643 270.722 93.9104L270.662 134.03L270.724 179.926C270.729 186.729 271.037 202.704 269.771 209.048C264.25 236.724 220.056 264.828 198.562 280.461C188.901 287.49 146.74 314.97 136.712 315.699C136.622 306.747 136.619 297.795 136.703 288.849C140.247 287.588 151.833 280.387 155.565 278.079C183.55 260.769 211.472 242.198 235.39 219.493C248.872 206.696 245.885 193.562 245.755 175.518C238.893 178.794 223.171 188.327 215.879 187.182C207.563 185.884 169.804 139.519 159.139 137.189C147.578 134.664 130.068 156.469 116.953 155.557C112.42 155.244 108.671 152.213 105.801 148.901C104.53 147.437 103.89 146.232 103.991 144.291C107.901 138.843 144.279 112.591 151.683 108.069C169.186 100.22 182.894 115.925 198.207 121.293C208.437 124.88 218.513 116.01 227.513 111.948C233.506 109.244 239.837 105.735 245.759 102.764C245.826 94.8791 245.777 86.9938 245.614 79.1104C241.262 76.2123 234.354 73.182 229.516 70.8871L202.446 58.0722L161.709 38.7203C154.049 35.0875 144.584 30.314 136.796 27.3174C136.363 19.0323 136.785 8.75045 136.546 0Z" fill="#4780FF"/>
<path d="M68.5957 185.523C89.9645 183.986 77.5127 203.102 67.4641 210.199C65.0002 210.566 60.0295 210.162 58.3653 208.405C51.6991 201.363 64.1828 189.485 68.5957 185.523Z" fill="#4780FF"/>
<path d="M85.6577 199.668C105.611 200.011 92.5535 218.815 82.3721 224.252C62.8922 223.701 75.9576 204.205 85.6577 199.668Z" fill="#4780FF"/>
<path d="M99.8603 214.296C103.036 214.131 107.869 214.749 109.611 217.511C114.303 224.963 103.191 233.872 98.6295 237.092C95.7082 237.203 91.3076 236.554 89.4707 234.288C83.9648 227.504 95.8582 217.529 99.8603 214.296Z" fill="#4780FF"/>
<path d="M115.209 228.391C130.909 229.187 127.025 244.353 114.699 248.664C97.4861 248.933 104.481 234.183 115.209 228.391Z" fill="#4780FF"/>
<path d="M912.77 120.847C929.632 119.734 928.537 124.762 938.805 128.365C940.385 126.993 938.218 125.916 940.036 122.692C945.504 122.263 953.512 122.54 959.17 122.57C959.795 135.425 959.275 150.831 959.379 163.903C958.73 176.388 960.781 191.04 958.074 203.176C950.194 238.469 905.728 239.59 882.834 218.698L887.023 214.498L896.128 205.393C914.038 218.808 939.657 217.675 939.332 190.336C933.754 194.34 929.48 197.028 922.549 198.345C912.966 200.065 903.096 197.898 895.111 192.326C886.533 186.332 881.028 176.877 879.314 166.621C877.618 155.845 880.214 144.834 886.551 135.954C893.347 126.543 901.779 122.645 912.77 120.847ZM939.167 156.354C937.287 145.56 927.123 138.252 916.291 139.91C909.084 141.014 903.041 145.927 900.487 152.753C897.934 159.58 899.269 167.253 903.978 172.818C908.692 178.378 916.04 180.956 923.197 179.56C933.949 177.459 941.047 167.148 939.167 156.354Z" fill="#4780FF"/>
<path d="M870.331 90.6113C869.627 126.522 870.705 163.112 870.209 199.122C865.776 199.128 854.191 199.471 850.511 198.724C849.77 196.985 849.996 193.942 849.99 191.939C837.322 202.343 824.414 203.475 809.627 197.267C786.445 185.082 780.861 154.852 796.946 134.825C803.253 126.842 812.548 121.78 822.676 120.811C833.305 119.797 841.847 123.144 849.904 129.713L849.96 90.666L870.331 90.6113ZM850.088 157.59C848.208 146.021 837.285 138.18 825.719 140.1C814.214 142.011 806.419 152.869 808.286 164.38C810.16 175.897 820.991 183.729 832.509 181.898C844.088 180.062 851.968 169.162 850.088 157.59Z" fill="#4780FF"/>
<path d="M602.649 120.889C613.915 119.91 620.718 123.48 629.425 129.67L629.541 122.502L649.521 122.532L649.472 199.129L629.627 199.16L629.566 191.739L624.312 195.7C620.259 198.137 616.487 199.699 611.828 200.495C602.025 202.221 591.94 199.888 583.894 194.035C556.096 173.786 564.686 125.997 602.649 120.889ZM625.036 147.462C620.168 141.621 612.533 138.853 605.05 140.215C593.692 142.284 586.099 153.102 588.022 164.491C589.945 175.873 600.666 183.6 612.08 181.825C619.593 180.661 625.894 175.536 628.576 168.421C631.264 161.306 629.91 153.298 625.036 147.462Z" fill="#1B3476"/>
<path d="M703.911 90.5714L780.639 90.5469L780.499 111.133C762.203 111.464 743.154 111.235 724.815 111.277C724.687 119.072 724.681 126.869 724.791 134.665L775.992 134.677C776.096 141.244 776.102 147.811 776.016 154.381L731.955 154.388C729.628 154.339 727.412 154.094 725.238 154.859C724.338 159.807 724.779 173.277 724.913 178.757L780.615 178.819C780.639 185.597 780.627 192.375 780.578 199.153L704.083 199.19C703.807 162.984 703.746 126.778 703.911 90.5714Z" fill="#4780FF"/>
<path d="M436.804 120.799C458.819 118.214 478.797 133.874 481.544 155.869C484.29 177.863 468.776 197.958 446.802 200.867C424.598 203.8 404.251 188.095 401.475 165.868C398.7 143.643 414.559 123.411 436.804 120.799ZM462.057 159.629C461.266 148.326 451.497 139.788 440.192 140.515C428.798 141.249 420.175 151.112 420.973 162.507C421.77 173.895 431.683 182.462 443.068 181.598C454.364 180.747 462.849 170.926 462.057 159.629Z" fill="#1B3476"/>
<path d="M1008.1 120.768C1028.49 120.936 1042.33 135.9 1044.42 155.423C1044.86 159.617 1044.64 164.154 1044.56 168.379C1026.06 168.618 1007.31 168.483 988.805 168.471C995.259 185.658 1013.52 186.7 1026.07 175.311C1028.06 176.903 1030.08 178.709 1032.02 180.38L1040.06 187.557C1026.42 201.829 999.863 206.569 983.95 193.631C956.659 171.447 965.238 126.338 1003.45 120.873C1005 120.8 1006.55 120.765 1008.1 120.768ZM1024.34 153.108C1020.06 141.654 1015.11 138.764 1002.73 139.77C994.862 142.526 991.947 145.171 988.874 153.145L1010.74 153.231L1024.34 153.108Z" fill="#4780FF"/>
<path d="M480.318 122.642L502.77 122.482C509.107 138.814 517.698 157.498 524.856 173.712C531.199 161.368 541.02 136.317 546.911 122.552L569.131 122.61C561.753 140.327 553.009 158.276 545.227 175.984C540.077 186.711 535.516 197.935 530.244 208.632C521.702 225.96 512.928 231.367 493.629 231.71L493.634 212.398C506.511 212.367 509.64 207.83 514.201 196.735C502.953 172.377 490.886 147.205 480.318 122.642Z" fill="#1B3476"/>
<path d="M323.616 90.6254L344.393 90.5898L344.438 178.814L397.53 178.795L397.486 199.124L323.566 199.136L323.616 90.6254Z" fill="#1B3476"/>
<path d="M661.456 90.6602L681.705 90.5684L681.693 199.172C675.006 199.093 668.136 199.172 661.438 199.184L661.456 90.6602Z" fill="#1B3476"/>
</svg>
